<?xml version="1.0" encoding="utf-8"?>
<!-- Generator: Adobe Illustrator 18.1.1, SVG Export Plug-In . SVG Version: 6.00 Build 0)  -->
<svg version="1.1" id="Layer_1" xmlns="http://www.w3.org/2000/svg" xmlns:xlink="http://www.w3.org/1999/xlink" x="0px" y="0px"
	 viewBox="0 0 602 202" enable-background="new 0 0 602 202" xml:space="preserve">
<g>
	<g>
		<g>
			<g>
				<path fill="#F69553" d="M489.7,41.3c-4.9,0-9.5,1.2-13.5,3.3l34.9,46.3c5-5.3,8-12.4,8-20.2C519.1,54.5,505.9,41.3,489.7,41.3z"
					/>
			</g>
			<g>
				<path fill="#F37A52" d="M450.3,119.9c0,22.3,18.1,40.5,40.4,40.5c7.1,0,13.9-2,19.5-5l-48.2-64
					C455,98.5,450.3,108.7,450.3,119.9z"/>
			</g>
			<g>
				<path fill="#654D53" d="M539.8,137.8l-68.1-90.4c-7,5.4-11.5,13.8-11.5,23.4c0,5.6,1.7,10.7,4.3,15.3l50.1,66.5c0,0,0.1,0,0.2,0
					c5.6,6.4,15.2,7.5,22.3,2.7l21.9-16.5l-2.7-3.5l-5.4,4.1C547.4,141.9,542.4,141.2,539.8,137.8z"/>
			</g>
		</g>
		<g>
			<g>
				<path fill="#A39985" d="M543.4,98h6.9v-5h-37.1l23.1,30.4v-17.6C536.2,101.4,539.1,98,543.4,98z"/>
			</g>
		</g>
	</g>
	<g>
		<g>
			<path fill="#F37A52" d="M169.5,104.8v55.3l-19.2,0v-24.6h-13.1v24.6l-19.2,0v-55.3h19.2v24.9h13.1v-24.9H169.5z"/>
		</g>
	</g>
	<g>
		<g>
			<g>
				<path fill="#F69553" d="M119.2,42.3l10.6,39.2l10.8-39.2h28.9v56.2h-19.2V62.2l-13.9,36.4h-13l-13.9-36.4v36.4H90.2V42.3H119.2z
					"/>
			</g>
		</g>
		<g>
			<g>
				<path fill="#F69553" d="M230.1,98.6h-18.4l-3.7-12.8H196l-3.7,12.8h-18.4l18.5-56.2h19.3L230.1,98.6z M202,66l-3.7,14h7.4
					L202,66z"/>
			</g>
		</g>
		<g>
			<g>
				<path fill="#F69553" d="M269.6,98.6l-15.7-20.7v20.7h-19.2V43.3h19.2v20.6l15.7-20.6h15.9v6L269,70.9l16.4,21.7v6H269.6z"/>
			</g>
		</g>
		<g>
			<g>
				<path fill="#F69553" d="M308.8,75.1v9.2h11.9v-7.6h14.8v21.9h-45.9V43.3h45.9v20.2h-14.8v-6h-11.9V65h11.9v10.1H308.8z"/>
			</g>
		</g>
		<g>
			<g>
				<path fill="#F69553" d="M340.8,98.6V42.9H364c7.9,0,24.3,1.6,24.3,14.3c0,11-16.6,12-15.1,12c21.9-0.6,9.4,16.4,20,14.7v14.3
					c-21.6,2.9-25.4-10.3-25.4-19c0-2.2-1.7-4.5-4.9-4.5l-2.9,0.1v23.8H340.8z M360,57.1v7.5h4.3c3.2,0,4.9-1.3,4.9-3.8
					c0-1.9-1.7-3.7-4.9-3.7H360z"/>
			</g>
		</g>
		<g>
			<g>
				<path fill="#F69553" d="M420.3,98.6c-13.8,0-23.4-4.1-23.4-4.1V81h15.8c0,0,0.8,6.7,5.8,6.7c3.7,0,5.3-2.2,5.3-4.7
					c0-8.5-26.6-6.4-26.6-26c0-9.6,9.2-16.6,23.2-16.6c11.6,0,20.9,2.8,20.9,2.8v14.5H426c0,0-0.3-6.7-5.7-6.7
					c-3.2,0-4.7,2.1-4.7,4.7c0,8.7,27.1,6.8,27.1,26C442.7,91,436.6,98.6,420.3,98.6z"/>
			</g>
		</g>
		<g>
			<g>
				<path fill="#F37A52" d="M230.1,160.1h-18.4l-3.7-12.8H196l-3.7,12.8h-18.4l18.5-56.2h19.3L230.1,160.1z M202,127.6l-3.7,14h7.4
					L202,127.6z"/>
			</g>
		</g>
		<g>
			<g>
				<path fill="#F37A52" d="M269.6,160.1l-15.7-20.7v20.7h-19.2v-55.3h19.2v20.6l15.7-20.6h15.9v6L269,132.5l16.4,21.7v6H269.6z"/>
			</g>
		</g>
		<g>
			<g>
				<path fill="#F37A52" d="M308.8,136.7v9.2h11.9v-7.6h14.8v21.9h-45.9v-55.3h45.9v20.2h-14.8v-6h-11.9v7.5h11.9v10.1H308.8z"/>
			</g>
		</g>
		<g>
			<g>
				<path fill="#F37A52" d="M340.8,160.1v-55.7H364c7.9,0,24.3,1.6,24.3,14.3c0,11-16.6,12-15.1,12c21.9-0.6,9.4,16.4,20,14.7v14.3
					c-21.6,2.9-25.4-10.3-25.4-19c0-2.2-1.7-4.5-4.9-4.5l-2.9,0.1v23.8H340.8z M360,118.7v7.5h4.3c3.2,0,4.9-1.3,4.9-3.8
					c0-1.9-1.7-3.7-4.9-3.7H360z"/>
			</g>
		</g>
		<g>
			<g>
				<path fill="#654D53" d="M73.5,42c0,0,1.7,7.8,6,7.8c1.2,0,2-0.8,2-2c0-1.6-1.1-2.1-1.9-1.9l0-5.1c0.2,0,0.5,0,0.8,0
					c3.2,0,5.5,2.7,5.5,7.7c0,4.1-2.3,6.8-5.3,6.8c-4.9,0-6.6-4.1-7-5.3v5.2h-4.9V42H73.5z"/>
			</g>
			<g>
				<path fill="#654D53" d="M85.8,64.7c0,4.9-3.6,8.8-8.8,8.8c-5.2,0-8.8-4-8.8-8.8c0-4.9,3.6-8.8,8.8-8.8
					C82.3,55.9,85.8,59.8,85.8,64.7z M73,64.7c0,2.1,1.9,3.7,4,3.7s4-1.7,4-3.7c0-2.1-1.9-3.7-4-3.7S73,62.6,73,64.7z"/>
			</g>
			<g>
				<path fill="#654D53" d="M78.6,75.6V74h3.7c-0.2,4,3,4.3,3,4.3v3.2H73.5V83h-4.9v-9h4.9v1.6H78.6z"/>
			</g>
			<g>
				<path fill="#654D53" d="M68.6,90.7c0-2.9,0.1-6.7,0.1-6.7h4.8c0,0,0,2.9,0,5.3c0,2.3,0,3.2,1,3.2c0.8,0,0.8-0.7,0.8-2.9V84h10
					v14.6h-5.2v-8.6h-1.4v2.3c0,3.7-1.7,6.3-4.9,6.3C70,98.6,68.6,96.3,68.6,90.7z"/>
			</g>
		</g>
		<g>
			<g>
				<path fill="#F37A52" d="M420.3,160.1c-13.8,0-23.4-4.1-23.4-4.1v-13.4h15.8c0,0,0.8,6.7,5.8,6.7c3.7,0,5.3-2.2,5.3-4.7
					c0-8.5-26.6-6.4-26.6-26c0-9.6,9.2-16.6,23.2-16.6c11.6,0,20.9,2.8,20.9,2.8v14.5H426c0,0-0.3-6.7-5.7-6.7
					c-3.2,0-4.7,2.1-4.7,4.7c0,8.7,27.1,6.8,27.1,26C442.7,152.6,436.6,160.1,420.3,160.1z"/>
			</g>
		</g>
		<g>
			<g>
				<path fill="#F37A52" d="M92.5,160.1c-13.8,0-23.4-4.1-23.4-4.1v-13.4h15.8c0,0,0.8,6.7,5.8,6.7c3.7,0,5.3-2.2,5.3-4.7
					c0-8.5-26.6-6.4-26.6-26c0-9.6,9.2-16.6,23.2-16.6c11.6,0,20.9,2.8,20.9,2.8v14.5H98.2c0,0-0.3-6.7-5.7-6.7
					c-3.2,0-4.7,2.1-4.7,4.7c0,8.7,27.1,6.8,27.1,26C114.9,152.6,108.8,160.1,92.5,160.1z"/>
			</g>
		</g>
	</g>
	<g>
		<g>
			<path fill="#F69553" d="M501,191H101c-27.9,0-52.9-12.7-69.4-32.7l-7.5,6.6c18.3,22,46,36.1,76.9,36.1h400
				c30.8,0,58.4-14,76.7-35.9l-7.5-6.6C553.7,178.4,528.8,191,501,191z"/>
		</g>
		<g>
			<path fill="#F37A52" d="M501,11c49.7,0,90,40.3,90,90v0c0,11.4-2.1,22.3-6,32.3l9.5,3.2c4.2-11,6.5-23,6.5-35.5v0
				C601,45.8,556.2,1,501,1H308l-2,10H501z"/>
		</g>
		<g>
			<path fill="#654D53" d="M11,101L11,101c0-49.7,40.3-90,90-90h175l-2-10H101C45.8,1,1,45.8,1,101v0c0,12.5,2.3,24.4,6.5,35.4
				l9.5-3.2C13.1,123.2,11,112.3,11,101z"/>
		</g>
		<g>
			<path fill="#F69553" d="M501,176H101c-23.4,0-44.3-10.7-58.1-27.6l-7.5,6.6c15.6,18.9,39.2,31,65.6,31h400
				c26.3,0,49.9-12,65.5-30.8l-7.5-6.6C545.2,165.3,524.3,176,501,176z"/>
		</g>
		<g>
			<path fill="#F37A52" d="M501,26c41.4,0,75,33.6,75,75v0c0,9.7-1.9,19-5.2,27.5l9.5,3.2c3.7-9.5,5.7-19.9,5.7-30.7v0
				c0-46.9-38.1-85-85-85H305l-2,10H501z"/>
		</g>
		<g>
			<path fill="#654D53" d="M26,101L26,101c0-41.4,33.6-75,75-75h178l-2-10H101c-46.9,0-85,38.1-85,85v0c0,10.8,2,21.1,5.7,30.6
				l9.5-3.2C27.9,119.9,26,110.7,26,101z"/>
		</g>
		<g>
			<path fill="#A39985" d="M585,133.3c-3.6,9.2-8.6,17.8-14.8,25.2l7.5,6.6c7.1-8.5,12.8-18.1,16.8-28.6L585,133.3z"/>
		</g>
		<g>
			<path fill="#A39985" d="M559,148.6l7.5,6.6c5.8-7,10.5-14.9,13.8-23.5l-9.5-3.2C567.9,135.8,563.9,142.6,559,148.6z"/>
		</g>
		<g>
			<path fill="#A39985" d="M16.9,133.2l-9.5,3.2c4,10.5,9.6,20.1,16.7,28.6l7.5-6.6C25.5,150.9,20.5,142.4,16.9,133.2z"/>
		</g>
		<g>
			<path fill="#A39985" d="M31.2,128.4l-9.5,3.2c3.3,8.6,8,16.5,13.7,23.5l7.5-6.6C38,142.4,34,135.7,31.2,128.4z"/>
		</g>
		<g>
			<polygon fill="#A39985" points="306,11 308,1 274,1 276,11 			"/>
		</g>
		<g>
			<polygon fill="#A39985" points="279,26 303,26 305,16 277,16 			"/>
		</g>
	</g>
</g>
</svg>
